<svg id="Layer_1" data-name="Layer 1" xmlns="http://www.w3.org/2000/svg" viewBox="0 0 210.63 63.99"><defs><style>.cls-1{isolation:isolate;}.cls-2{fill:#fff;}.cls-3{fill:#e6f7ff;}</style></defs><g class="cls-1"><g class="cls-1"><path class="cls-2" d="M119.41,40.89a4,4,0,0,1-2.83-1.09,3.47,3.47,0,0,1-1.15-2.58V8.61A3.4,3.4,0,0,1,116.61,6a4.08,4.08,0,0,1,2.8-1H128a13.88,13.88,0,0,1,5,.84A10.5,10.5,0,0,1,136.65,8a9.24,9.24,0,0,1,2.14,3.19,9.85,9.85,0,0,1,.72,3.72A6.33,6.33,0,0,1,138,19.34a12.39,12.39,0,0,1-3.83,2.84,14.64,14.64,0,0,1,2.32,1.14,9.15,9.15,0,0,1,2,1.66,7.79,7.79,0,0,1,1.43,2.24,7.59,7.59,0,0,1,.54,3,10.06,10.06,0,0,1-.87,4.18,9.9,9.9,0,0,1-2.5,3.4,12.09,12.09,0,0,1-4,2.29,15.64,15.64,0,0,1-5.3.84Zm9-21.88a4.22,4.22,0,0,0,2.63-.94,3.52,3.52,0,0,0,.94-1.25,4.13,4.13,0,0,0,.36-1.78,4.34,4.34,0,0,0-.79-2.58,3.22,3.22,0,0,0-2.78-1.1h-6.22V19Zm-5.86,6.53v8.88h5.71a5.36,5.36,0,0,0,3.8-1.18,4.13,4.13,0,0,0,1.25-3.16A4.21,4.21,0,0,0,132,26.72a5,5,0,0,0-3.39-1.18Z" transform="translate(-3.85 -2.3)"/><path class="cls-2" d="M164.39,37.58a3.08,3.08,0,0,1-1,2.34,3.58,3.58,0,0,1-2.53,1H147.31A6.74,6.74,0,0,1,144,40.1a2.94,2.94,0,0,1-1.42-2.83V8.56a3.47,3.47,0,0,1,1.12-2.47,3.74,3.74,0,0,1,2.8-1.15h13.82a3.55,3.55,0,0,1,2.53,1,3.09,3.09,0,0,1,1,2.32,2.83,2.83,0,0,1-1,2.27,3.75,3.75,0,0,1-2.53.9h-10.6v8.21h9.64a3.69,3.69,0,0,1,2.42.91,2.89,2.89,0,0,1,1.09,2.3,3,3,0,0,1-1,2.32,3.53,3.53,0,0,1-2.49.94h-9.64v8.32h11.11a3.71,3.71,0,0,1,2.5.91A2.84,2.84,0,0,1,164.39,37.58Z" transform="translate(-3.85 -2.3)"/><path class="cls-2" d="M181.78,30.49A3.54,3.54,0,0,0,181.1,28a4.26,4.26,0,0,0-1.41-1c-.54-.24-1.13-.47-1.76-.69l-2-.69c-1.26-.37-2.51-.79-3.75-1.25a12.41,12.41,0,0,1-3.34-1.83,8.68,8.68,0,0,1-2.4-3,10.09,10.09,0,0,1-.91-4.56,9.81,9.81,0,0,1,3.18-7.76q3.19-2.81,8.65-2.8a28.44,28.44,0,0,1,2.85.18,17.83,17.83,0,0,1,3.4.69,9,9,0,0,1,2.83,1.4,2.78,2.78,0,0,1,1.17,2.32,3.13,3.13,0,0,1-.94,2.24,3.49,3.49,0,0,1-2.63,1,4.21,4.21,0,0,1-1.28-.18l-1.22-.38c-.48-.17-1-.34-1.63-.51A8.52,8.52,0,0,0,177.7,11a10,10,0,0,0-1.81.17,4.23,4.23,0,0,0-1.55.64,3.54,3.54,0,0,0-1.07,1.2,3.82,3.82,0,0,0-.41,1.86,3.27,3.27,0,0,0,.74,2.4,5.08,5.08,0,0,0,1.4,1,15.28,15.28,0,0,0,1.91.81c.6.21,1.18.4,1.76.57,1.26.4,2.51.84,3.75,1.3a12.9,12.9,0,0,1,3.37,1.83,8.67,8.67,0,0,1,2.42,2.93,9.8,9.8,0,0,1,.92,4.49,11.29,11.29,0,0,1-1,4.75,10.19,10.19,0,0,1-2.65,3.51,11.32,11.32,0,0,1-4,2.17,16.65,16.65,0,0,1-5.07.74,25.16,25.16,0,0,1-3.32-.25,18.6,18.6,0,0,1-3.57-.84,9.66,9.66,0,0,1-2.85-1.54,2.81,2.81,0,0,1-1.17-2.26,3.11,3.11,0,0,1,1-2.22,3.21,3.21,0,0,1,2.4-1,4.48,4.48,0,0,1,1.2.18c.42.12.88.26,1.35.43s1.34.43,2.17.67a10.4,10.4,0,0,0,2.88.36,6,6,0,0,0,4-1.13A4,4,0,0,0,181.78,30.49Z" transform="translate(-3.85 -2.3)"/><path class="cls-2" d="M198.31,11.42H192.9a3.61,3.61,0,0,1-2.55-.95,3,3,0,0,1-1-2.27,2.44,2.44,0,0,1,.28-1.12,4.16,4.16,0,0,1,.77-1,4.11,4.11,0,0,1,1.12-.79,3.23,3.23,0,0,1,1.4-.3h17.95a3.78,3.78,0,0,1,2.5.94,3,3,0,0,1,.05,4.59,3.72,3.72,0,0,1-2.55.95h-5.4V38.09a3,3,0,0,1-1,2.29,3.77,3.77,0,0,1-5.05,0,3,3,0,0,1-1-2.29Z" transform="translate(-3.85 -2.3)"/></g></g><g class="cls-1"><g class="cls-1"><path class="cls-2" d="M3.85,4.28A2,2,0,0,1,4.37,2.9a1.88,1.88,0,0,1,1.51-.6,1.87,1.87,0,0,1,1.5.6A2,2,0,0,1,7.9,4.28V15.4A11.47,11.47,0,0,1,11,13.82a12,12,0,0,1,3.8-.55,9.94,9.94,0,0,1,3.77.63,6.55,6.55,0,0,1,2.5,1.71,6.42,6.42,0,0,1,1.37,2.58,11.61,11.61,0,0,1,.42,3.19v9.78a10.68,10.68,0,0,1-.6,3.61,8,8,0,0,1-1.79,2.94,8.69,8.69,0,0,1-3,2,10.93,10.93,0,0,1-4.16.73,11.87,11.87,0,0,1-4-.65,9,9,0,0,1-3-1.75,7.42,7.42,0,0,1-1.84-2.6,7.92,7.92,0,0,1-.65-3.22ZM7.9,32.2a4,4,0,0,0,1.46,3.3,6.23,6.23,0,0,0,4,1.17,5.34,5.34,0,0,0,4.14-1.45,5.84,5.84,0,0,0,1.32-4.06V21.38A4.64,4.64,0,0,0,17.65,18a5.2,5.2,0,0,0-3.82-1.19,7.58,7.58,0,0,0-3.4.7,8.38,8.38,0,0,0-2.53,1.9Z" transform="translate(-3.85 -2.3)"/><path class="cls-2" d="M34.68,40.42a11.39,11.39,0,0,1-4.21-.73,8.8,8.8,0,0,1-3-2,8.16,8.16,0,0,1-1.85-2.94A10.45,10.45,0,0,1,25,31.16V22.48a10.67,10.67,0,0,1,.62-3.67,8.16,8.16,0,0,1,1.85-2.94,8.47,8.47,0,0,1,3-1.95,11.61,11.61,0,0,1,4.21-.7,11.67,11.67,0,0,1,4.22.7,8.56,8.56,0,0,1,3,1.95,8.14,8.14,0,0,1,1.84,2.94,10.44,10.44,0,0,1,.63,3.67v8.68a10.22,10.22,0,0,1-.63,3.61,8.14,8.14,0,0,1-1.84,2.94,8.9,8.9,0,0,1-3,2A11.44,11.44,0,0,1,34.68,40.42Zm0-3.75a5.68,5.68,0,0,0,4.24-1.45,5.57,5.57,0,0,0,1.43-4.06V22.42a5.48,5.48,0,0,0-1.43-4A5.68,5.68,0,0,0,34.68,17a5.67,5.67,0,0,0-4.23,1.46,5.44,5.44,0,0,0-1.43,4v8.74a5.53,5.53,0,0,0,1.43,4.06A5.67,5.67,0,0,0,34.68,36.67Z" transform="translate(-3.85 -2.3)"/><path class="cls-2" d="M56.21,40.42A11.39,11.39,0,0,1,52,39.69a8.71,8.71,0,0,1-3-2,8.16,8.16,0,0,1-1.85-2.94,10.22,10.22,0,0,1-.62-3.61V22.48a10.44,10.44,0,0,1,.62-3.67A8.16,8.16,0,0,1,49,15.87a8.38,8.38,0,0,1,3-1.95,13,13,0,0,1,8.42,0,8.38,8.38,0,0,1,3,1.95,8.16,8.16,0,0,1,1.85,2.94,10.44,10.44,0,0,1,.62,3.67v8.68a10.22,10.22,0,0,1-.62,3.61,8.16,8.16,0,0,1-1.85,2.94,8.71,8.71,0,0,1-3,2A11.39,11.39,0,0,1,56.21,40.42Zm0-3.75a5.71,5.71,0,0,0,4.24-1.45,5.57,5.57,0,0,0,1.43-4.06V22.42a5.48,5.48,0,0,0-1.43-4A5.71,5.71,0,0,0,56.21,17,5.71,5.71,0,0,0,52,18.42a5.48,5.48,0,0,0-1.43,4v8.74A5.57,5.57,0,0,0,52,35.22,5.71,5.71,0,0,0,56.21,36.67Z" transform="translate(-3.85 -2.3)"/><path class="cls-2" d="M76.7,13.48a17.4,17.4,0,0,1,2.83.26,19.74,19.74,0,0,1,2.94.73V4.28A2,2,0,0,1,83,2.87a2.29,2.29,0,0,1,3,0,2,2,0,0,1,.52,1.41V34.07a5,5,0,0,0,.28,1.82,3,3,0,0,0,1.07,1.3c.1.18.19.33.26.47a1.29,1.29,0,0,1,.1.57,1.67,1.67,0,0,1-.57,1.33,1.87,1.87,0,0,1-1.25.49,2.7,2.7,0,0,1-1.58-.47,4,4,0,0,1-1.17-1.19,22.07,22.07,0,0,1-3.57,1.45,12.86,12.86,0,0,1-3.82.58,7.3,7.3,0,0,1-6.19-2.73A11.45,11.45,0,0,1,68,30.59V24a20,20,0,0,1,.42-4.26,8.54,8.54,0,0,1,1.43-3.3,6.9,6.9,0,0,1,2.68-2.16A9.77,9.77,0,0,1,76.7,13.48Zm5.77,4.63a11.91,11.91,0,0,0-2.81-.83A14.28,14.28,0,0,0,77.22,17c-1.91,0-3.24.55-4,1.66A9.59,9.59,0,0,0,72.07,24v6.61c0,4.12,1.68,6.19,5,6.19a10.15,10.15,0,0,0,2.68-.39,13.26,13.26,0,0,0,2.78-1.12,2,2,0,0,1-.1-.63V18.11Z" transform="translate(-3.85 -2.3)"/><path class="cls-2" d="M104.26,22.42c0-3.7-1.86-5.56-5.57-5.56a6.56,6.56,0,0,0-2.21.31,14.6,14.6,0,0,0-1.74.78l-.52.24a2.07,2.07,0,0,1-.83.18,1.16,1.16,0,0,1-1.07-.57,2.91,2.91,0,0,1-.39-1.15,2,2,0,0,1,.55-1.53,4.34,4.34,0,0,1,1.66-1.07,11.38,11.38,0,0,1,2.4-.6,19.74,19.74,0,0,1,2.67-.18c3.26,0,5.59.89,7,2.65s2.1,4.39,2.1,7.86V35.22c0,1,.32,1.56.94,1.56a.48.48,0,0,0,.18,0,.7.7,0,0,1,.24,0,1.3,1.3,0,0,1,1.11.55,2,2,0,0,1,.39,1.22,1.43,1.43,0,0,1-.72,1.38,3.4,3.4,0,0,1-1.62.39,4,4,0,0,1-2.31-.7,4.79,4.79,0,0,1-1.59-1.9,10.19,10.19,0,0,1-7.12,2.76c-2.7,0-4.71-.72-6-2.16a8.18,8.18,0,0,1-2-5.7v-.2q0-7.69,9.16-7.7a18.55,18.55,0,0,1,5.25.73ZM99,28.09a8.4,8.4,0,0,0-2.6.34,3.66,3.66,0,0,0-1.53.94,3.13,3.13,0,0,0-.75,1.37,6.42,6.42,0,0,0-.21,1.67v.21a4.57,4.57,0,0,0,1,3c.64.78,1.85,1.17,3.61,1.17a8.46,8.46,0,0,0,3.07-.55,9.07,9.07,0,0,0,2.76-1.74V28.87a15.92,15.92,0,0,0-2.71-.6A20.44,20.44,0,0,0,99,28.09Z" transform="translate(-3.85 -2.3)"/></g></g><g class="cls-1"><g class="cls-1"><path class="cls-3" d="M25.31,52.16h1.42v2.33h1.34v1.15H26.73V61.1a.6.6,0,0,0,.3.59,1.21,1.21,0,0,0,.55.09h.22l.27,0v1.12a2.77,2.77,0,0,1-.5.1A5.17,5.17,0,0,1,27,63a1.53,1.53,0,0,1-1.34-.5,2.28,2.28,0,0,1-.35-1.31V55.64H24.18V54.49h1.13Z" transform="translate(-3.85 -2.3)"/><path class="cls-3" d="M29.64,51.35H31v4.28a4.34,4.34,0,0,1,.9-.89,3,3,0,0,1,1.7-.45,2.53,2.53,0,0,1,2.47,1.27,4.44,4.44,0,0,1,.35,1.93v5.37H35V57.59a3,3,0,0,0-.23-1.35,1.51,1.51,0,0,0-1.44-.69,2.43,2.43,0,0,0-1.59.6A2.9,2.9,0,0,0,31,58.42v4.44h-1.4Z" transform="translate(-3.85 -2.3)"/><path class="cls-3" d="M43.86,54.72a3.11,3.11,0,0,1,1.27,1.09,3.82,3.82,0,0,1,.56,1.47,10.12,10.12,0,0,1,.12,1.85H39.73a3.61,3.61,0,0,0,.59,2,2,2,0,0,0,1.73.77,2.26,2.26,0,0,0,1.75-.73,2.56,2.56,0,0,0,.51-1h1.38a2.73,2.73,0,0,1-.36,1,3.41,3.41,0,0,1-.69.93,3.16,3.16,0,0,1-1.57.84,4.47,4.47,0,0,1-1.14.13A3.48,3.48,0,0,1,39.3,62a4.44,4.44,0,0,1-1.08-3.18,4.81,4.81,0,0,1,1.09-3.28,3.56,3.56,0,0,1,2.84-1.25A3.84,3.84,0,0,1,43.86,54.72ZM44.37,58a3.63,3.63,0,0,0-.4-1.46,2,2,0,0,0-1.91-1,2.13,2.13,0,0,0-1.61.7A2.61,2.61,0,0,0,39.76,58Z" transform="translate(-3.85 -2.3)"/><path class="cls-3" d="M52.24,51.35h1.37v4.16a3.21,3.21,0,0,1,1.1-.92,3.15,3.15,0,0,1,1.4-.31,3.28,3.28,0,0,1,2.55,1.07,4.56,4.56,0,0,1,1,3.17,5.41,5.41,0,0,1-1,3.29A3.15,3.15,0,0,1,56,63.13a2.8,2.8,0,0,1-1.61-.46,4.22,4.22,0,0,1-.84-.88v1.07h-1.3ZM57.62,61a4.45,4.45,0,0,0,.57-2.39,3.92,3.92,0,0,0-.57-2.19,1.88,1.88,0,0,0-1.68-.87,2.33,2.33,0,0,0-1.68.71,3.18,3.18,0,0,0-.73,2.35,5.13,5.13,0,0,0,.3,1.91,2.06,2.06,0,0,0,2.08,1.38A1.89,1.89,0,0,0,57.62,61Z" transform="translate(-3.85 -2.3)"/><path class="cls-3" d="M66.58,54.72a3.11,3.11,0,0,1,1.27,1.09,3.67,3.67,0,0,1,.56,1.47,10.12,10.12,0,0,1,.12,1.85H62.45a3.61,3.61,0,0,0,.59,2,2,2,0,0,0,1.73.77,2.26,2.26,0,0,0,1.75-.73,2.56,2.56,0,0,0,.51-1h1.39a3,3,0,0,1-.37,1,3.61,3.61,0,0,1-.68.93,3.19,3.19,0,0,1-1.58.84,4.36,4.36,0,0,1-1.14.13A3.49,3.49,0,0,1,62,62a4.44,4.44,0,0,1-1.08-3.18A4.81,4.81,0,0,1,62,55.56a3.56,3.56,0,0,1,2.84-1.25A3.84,3.84,0,0,1,66.58,54.72ZM67.09,58a3.63,3.63,0,0,0-.4-1.46,2,2,0,0,0-1.91-1,2.13,2.13,0,0,0-1.61.7A2.71,2.71,0,0,0,62.48,58Z" transform="translate(-3.85 -2.3)"/><path class="cls-3" d="M71.31,60.24a1.94,1.94,0,0,0,.36,1.07,2.26,2.26,0,0,0,1.88.68A2.83,2.83,0,0,0,75,61.65a1.11,1.11,0,0,0,.6-1,.9.9,0,0,0-.48-.82,7,7,0,0,0-1.23-.4l-1.13-.28a5.24,5.24,0,0,1-1.6-.59,1.77,1.77,0,0,1-.93-1.58A2.39,2.39,0,0,1,71.06,55a3.5,3.5,0,0,1,2.33-.73,3.27,3.27,0,0,1,2.77,1.1,2.42,2.42,0,0,1,.51,1.52H75.34A1.54,1.54,0,0,0,75,56a2.22,2.22,0,0,0-1.72-.55,2.14,2.14,0,0,0-1.24.3.94.94,0,0,0-.42.8,1,1,0,0,0,.56.87,3.26,3.26,0,0,0,.94.35l.94.22a7.56,7.56,0,0,1,2.07.71,1.89,1.89,0,0,1,.82,1.7,2.55,2.55,0,0,1-.86,1.93,3.68,3.68,0,0,1-2.61.81,3.53,3.53,0,0,1-2.68-.85A3.2,3.2,0,0,1,70,60.24Z" transform="translate(-3.85 -2.3)"/><path class="cls-3" d="M78.92,52.16h1.42v2.33h1.33v1.15H80.34V61.1a.6.6,0,0,0,.3.59,1.19,1.19,0,0,0,.54.09h.22l.27,0v1.12a2.6,2.6,0,0,1-.5.1,4.91,4.91,0,0,1-.57,0,1.5,1.5,0,0,1-1.33-.5,2.2,2.2,0,0,1-.35-1.31V55.64H77.78V54.49h1.14Z" transform="translate(-3.85 -2.3)"/><path class="cls-3" d="M93.08,54.49h1.55c-.2.54-.64,1.77-1.32,3.68-.51,1.44-.94,2.61-1.28,3.51a22.88,22.88,0,0,1-1.72,3.91,1.94,1.94,0,0,1-1.71.7l-.46,0-.4-.09V64.9l.53.13.29,0a1,1,0,0,0,.58-.13,1.14,1.14,0,0,0,.3-.32s.12-.25.29-.63l.35-.86L87,54.49h1.6l2.24,6.82Z" transform="translate(-3.85 -2.3)"/><path class="cls-3" d="M102.07,55.33a4.22,4.22,0,0,1,1.11,3.17,5.47,5.47,0,0,1-1,3.34,3.52,3.52,0,0,1-3,1.32A3.43,3.43,0,0,1,96.44,62a4.63,4.63,0,0,1-1-3.13A5,5,0,0,1,96.5,55.5a3.56,3.56,0,0,1,2.85-1.25A3.76,3.76,0,0,1,102.07,55.33Zm-.87,5.56a5.33,5.33,0,0,0,.51-2.35,4.22,4.22,0,0,0-.37-1.91,2.08,2.08,0,0,0-2-1.15,2,2,0,0,0-1.85,1,4.58,4.58,0,0,0-.58,2.37,4,4,0,0,0,.58,2.23A2,2,0,0,0,99.3,62,1.94,1.94,0,0,0,101.2,60.89Z" transform="translate(-3.85 -2.3)"/><path class="cls-3" d="M106.47,54.49v5.56a2.49,2.49,0,0,0,.2,1.05,1.37,1.37,0,0,0,1.36.75,1.94,1.94,0,0,0,2-1.32,5.29,5.29,0,0,0,.28-1.93V54.49h1.41v8.37h-1.33V61.63a3,3,0,0,1-.66.8,2.91,2.91,0,0,1-1.92.66,2.45,2.45,0,0,1-2.39-1.2,3.6,3.6,0,0,1-.35-1.71V54.49Z" transform="translate(-3.85 -2.3)"/><path class="cls-3" d="M123.33,54.75a3.92,3.92,0,0,1,.84.82V51.35h1.36V62.86h-1.27V61.7a3.06,3.06,0,0,1-1.16,1.11,3.32,3.32,0,0,1-1.53.35A3.1,3.1,0,0,1,119.15,62a4.61,4.61,0,0,1-1-3.13,5.45,5.45,0,0,1,.93-3.16,3.35,3.35,0,0,1,4.27-.94ZM120.19,61a2,2,0,0,0,1.82.9,1.9,1.9,0,0,0,1.59-.84,4,4,0,0,0,.63-2.41,3.58,3.58,0,0,0-.65-2.35,2,2,0,0,0-1.59-.76,2.09,2.09,0,0,0-1.71.81,3.75,3.75,0,0,0-.66,2.4A4.18,4.18,0,0,0,120.19,61Z" transform="translate(-3.85 -2.3)"/><path class="cls-3" d="M133,54.72a3.15,3.15,0,0,1,1.26,1.09,3.67,3.67,0,0,1,.56,1.47,10.12,10.12,0,0,1,.12,1.85h-6.08a3.53,3.53,0,0,0,.6,2,2,2,0,0,0,1.72.77,2.26,2.26,0,0,0,1.75-.73,2.56,2.56,0,0,0,.51-1h1.39a3,3,0,0,1-.37,1,3.61,3.61,0,0,1-.68.93,3.19,3.19,0,0,1-1.58.84,4.36,4.36,0,0,1-1.14.13A3.49,3.49,0,0,1,128.39,62a4.44,4.44,0,0,1-1.08-3.18,4.81,4.81,0,0,1,1.09-3.28,3.56,3.56,0,0,1,2.84-1.25A3.92,3.92,0,0,1,133,54.72Zm.5,3.29a3.63,3.63,0,0,0-.4-1.46,2,2,0,0,0-1.91-1,2.13,2.13,0,0,0-1.61.7,2.71,2.71,0,0,0-.69,1.78Z" transform="translate(-3.85 -2.3)"/><path class="cls-3" d="M137.68,60.24a1.94,1.94,0,0,0,.36,1.07,2.26,2.26,0,0,0,1.88.68,2.83,2.83,0,0,0,1.41-.34,1.11,1.11,0,0,0,.6-1,.9.9,0,0,0-.48-.82,7,7,0,0,0-1.23-.4l-1.13-.28a5.43,5.43,0,0,1-1.61-.59,1.78,1.78,0,0,1-.92-1.58,2.39,2.39,0,0,1,.87-1.92,3.5,3.5,0,0,1,2.33-.73,3.27,3.27,0,0,1,2.77,1.1A2.42,2.42,0,0,1,143,56.9h-1.33a1.54,1.54,0,0,0-.34-.86,2.23,2.23,0,0,0-1.72-.55,2.14,2.14,0,0,0-1.24.3.94.94,0,0,0-.42.8,1,1,0,0,0,.55.87,3.51,3.51,0,0,0,.94.35l1,.22a7.56,7.56,0,0,1,2.07.71,1.89,1.89,0,0,1,.82,1.7,2.55,2.55,0,0,1-.86,1.93,3.68,3.68,0,0,1-2.61.81,3.53,3.53,0,0,1-2.68-.85,3.2,3.2,0,0,1-.84-2.09Z" transform="translate(-3.85 -2.3)"/><path class="cls-3" d="M150.17,54.72a3.11,3.11,0,0,1,1.27,1.09,3.82,3.82,0,0,1,.56,1.47,10.12,10.12,0,0,1,.12,1.85H146a3.61,3.61,0,0,0,.59,2,2,2,0,0,0,1.73.77,2.26,2.26,0,0,0,1.75-.73,2.56,2.56,0,0,0,.51-1H152a3,3,0,0,1-.37,1,3.41,3.41,0,0,1-.69.93,3.16,3.16,0,0,1-1.57.84,4.47,4.47,0,0,1-1.14.13A3.49,3.49,0,0,1,145.61,62a4.44,4.44,0,0,1-1.08-3.18,4.81,4.81,0,0,1,1.09-3.28,3.56,3.56,0,0,1,2.84-1.25A3.84,3.84,0,0,1,150.17,54.72Zm.51,3.29a3.63,3.63,0,0,0-.4-1.46,2,2,0,0,0-1.91-1,2.13,2.13,0,0,0-1.61.7,2.61,2.61,0,0,0-.69,1.78Z" transform="translate(-3.85 -2.3)"/><path class="cls-3" d="M154.1,54.49h1.34v1.45a3.26,3.26,0,0,1,.8-1,2.1,2.1,0,0,1,1.48-.6h.13l.32,0v1.48l-.23,0h-.23a2,2,0,0,0-1.63.68,2.42,2.42,0,0,0-.57,1.58v4.81H154.1Z" transform="translate(-3.85 -2.3)"/><path class="cls-3" d="M160.24,54.49l2.24,6.82,2.33-6.82h1.53l-3.14,8.37h-1.5l-3.09-8.37Z" transform="translate(-3.85 -2.3)"/><path class="cls-3" d="M172.88,54.72a3.18,3.18,0,0,1,1.27,1.09,3.82,3.82,0,0,1,.56,1.47,10.12,10.12,0,0,1,.12,1.85h-6.09a3.69,3.69,0,0,0,.6,2,2,2,0,0,0,1.73.77,2.23,2.23,0,0,0,1.74-.73,2.45,2.45,0,0,0,.52-1h1.38a2.92,2.92,0,0,1-.36,1,3.88,3.88,0,0,1-.69.93,3.16,3.16,0,0,1-1.57.84,4.47,4.47,0,0,1-1.14.13A3.5,3.5,0,0,1,168.31,62a4.44,4.44,0,0,1-1.07-3.18,4.86,4.86,0,0,1,1.08-3.28,3.57,3.57,0,0,1,2.84-1.25A3.88,3.88,0,0,1,172.88,54.72Zm.5,3.29a3.48,3.48,0,0,0-.39-1.46,2,2,0,0,0-1.91-1,2.15,2.15,0,0,0-1.62.7,2.71,2.71,0,0,0-.69,1.78Z" transform="translate(-3.85 -2.3)"/><path class="cls-3" d="M177.59,51.38h1.59v3.78l-.39,5H178l-.41-5Zm0,9.86h1.56v1.62h-1.56Z" transform="translate(-3.85 -2.3)"/></g></g></svg>